<svg width="345" height="17" viewBox="0 0 345 17" fill="none" xmlns="http://www.w3.org/2000/svg">
<path fill-rule="evenodd" clip-rule="evenodd" d="M215.937 16.93C214.728 16.93 213.578 16.7102 212.488 16.2604C211.418 15.8107 210.598 15.251 210.038 14.5614L210.378 14.2516C210.898 14.8713 211.658 15.4009 212.658 15.8307C213.658 16.2604 214.748 16.4803 215.917 16.4803C217.127 16.4803 218.127 16.3104 218.897 15.9706C219.677 15.6408 220.257 15.1911 220.617 14.6314C221.007 14.0517 221.197 13.4221 221.197 12.7325C221.197 11.933 221.007 11.2934 220.617 10.8136C220.237 10.3239 219.727 9.93416 219.087 9.66432C218.447 9.37449 217.747 9.14462 216.997 8.97472C216.247 8.77484 215.488 8.58495 214.718 8.39506C213.964 8.20184 213.268 7.95532 212.628 7.6555C211.988 7.33568 211.478 6.89594 211.088 6.35626C210.708 5.80992 210.518 5.097 210.518 4.21752C210.518 3.89104 210.558 3.57123 210.638 3.25808C210.731 2.87831 210.881 2.51186 211.088 2.15873C211.498 1.51911 212.098 0.999412 212.918 0.599647C213.748 0.199882 214.818 0 216.127 0C217.027 0 217.907 0.139918 218.777 0.429747C219.651 0.70292 220.394 1.0727 221.007 1.53909L220.737 1.91887C220.067 1.41917 219.327 1.05938 218.507 0.819518C217.697 0.579659 216.907 0.45973 216.157 0.45973C214.991 0.45973 214.024 0.632961 213.258 0.979424C212.488 1.31922 211.918 1.77895 211.548 2.34862C211.178 2.90829 210.998 3.53792 210.998 4.2475C210.998 5.06036 211.191 5.71664 211.578 6.21634C211.958 6.69606 212.468 7.07584 213.108 7.36567C213.748 7.63551 214.448 7.86537 215.198 8.05526C215.967 8.23516 216.727 8.42504 217.477 8.63492C218.227 8.82481 218.927 9.08466 219.567 9.40447C220.207 9.70429 220.717 10.124 221.097 10.6537C221.484 11.1801 221.677 11.873 221.677 12.7325C221.677 13.4721 221.477 14.1617 221.077 14.8013C220.677 15.4409 220.057 15.9606 219.207 16.3604C218.357 16.7402 217.267 16.93 215.937 16.93ZM298.463 16.4004H309.162V16.8601H297.983V0.0699588H308.802V0.519694H298.463V8.10523H307.722V8.55497H298.463V16.4004ZM339.26 17C338.04 17 336.89 16.7801 335.801 16.3304C334.731 15.8807 333.911 15.311 333.361 14.6314L333.691 14.3116C334.221 14.9412 334.981 15.4709 335.971 15.9006C336.98 16.3304 338.07 16.5503 339.24 16.5503C340.45 16.5503 341.44 16.3804 342.21 16.0406C343 15.7108 343.57 15.261 343.94 14.7014C344.32 14.1217 344.52 13.4921 344.52 12.8025C344.52 12.0029 344.32 11.3633 343.94 10.8836C343.56 10.3939 343.04 10.0041 342.4 9.73427C341.76 9.44444 341.07 9.21458 340.32 9.03469C339.56 8.8448 338.8 8.65491 338.04 8.46502C337.28 8.27513 336.59 8.02528 335.951 7.71546C335.311 7.39565 334.791 6.9659 334.411 6.42622C334.031 5.87654 333.831 5.16696 333.831 4.28748C333.831 3.55791 334.031 2.86831 334.411 2.22869C334.811 1.58907 335.421 1.06937 336.241 0.669606C337.07 0.269841 338.14 0.0699588 339.45 0.0699588C339.757 0.0699588 340.06 0.0866157 340.36 0.119929C340.947 0.179894 341.524 0.306486 342.09 0.499706C342.97 0.769547 343.71 1.13933 344.32 1.59906L344.06 1.98883C343.39 1.48912 342.64 1.11934 341.83 0.879483C341.01 0.639624 340.23 0.519694 339.48 0.519694C338.31 0.519694 337.34 0.699588 336.57 1.04938C335.801 1.38918 335.241 1.83892 334.871 2.41858C334.501 2.97825 334.321 3.60788 334.321 4.31746C334.321 5.12698 334.511 5.7866 334.891 6.27631C335.281 6.75603 335.791 7.1458 336.431 7.43563C337.07 7.70547 337.76 7.93533 338.52 8.12522C339.28 8.30511 340.04 8.495 340.79 8.70488C341.55 8.89477 342.24 9.15461 342.88 9.47443C343.52 9.77425 344.04 10.194 344.42 10.7137C344.8 11.2434 345 11.943 345 12.8025C345 13.542 344.79 14.2316 344.4 14.8713C344 15.5109 343.37 16.0306 342.52 16.4303C341.67 16.8101 340.59 17 339.26 17ZM6.23964 16.8601V0.529688H0V0.0699588H12.9592V0.529688H6.70961V16.8601H6.23964ZM18.7189 16.8601H18.2389V0.0699588H18.7189V8.10523H30.9582V0.0699588H31.4382V16.8601H30.9582V8.56496H18.7189V16.8601ZM40.3077 16.4103H51.017V16.8601H39.8277V0.0699588H50.6571V0.529688H40.3077V8.10523H49.5771V8.56496H40.3077V16.4103ZM69.006 16.8601V0.529688H62.7664V0.0699588H75.7256V0.529688H69.486V16.8601H69.006ZM81.4853 16.8601H81.0053V0.0699588H81.4853V8.10523H93.7246V0.0699588H94.2045V16.8601H93.7246V8.56496H81.4853V16.8601ZM102.604 16.8601V0.0699588H108.294C109.664 0.0699588 110.844 0.299824 111.814 0.739565C112.803 1.17931 113.573 1.79894 114.093 2.61846C114.62 3.43131 114.883 4.42073 114.883 5.58671C114.883 6.69939 114.637 7.66216 114.143 8.47501V8.48501C114.13 8.51166 114.113 8.53831 114.093 8.56496C113.573 9.37449 112.803 10.0141 111.814 10.4539C111.494 10.6038 111.144 10.7237 110.774 10.8136L115.133 16.8601H114.533L110.254 10.9336C109.654 11.0468 109 11.1035 108.294 11.1035H103.084V16.8601H102.604ZM122.263 16.4103H132.962V16.8601H121.783V0.0699588H132.602V0.529688H122.263V8.10523H131.522V8.56496H122.263V16.4103ZM140.292 16.4103H150.991V16.8601H139.812V0.0699588H150.631V0.529688H140.292V8.10523H149.551V8.56496H140.292V16.4103ZM165.84 16.8601V0.0699588H166.25L174.13 13.8419L181.989 0.0699588H182.399V16.8601H181.919V1.09935L174.26 14.4915H173.98L166.32 1.13933V16.8601H165.84ZM197.119 16.93C195.532 16.93 194.205 16.5569 193.139 15.8107C192.865 15.6175 192.609 15.4009 192.369 15.1611C191.219 13.9718 190.639 12.2028 190.639 9.83422V0.0699588H191.119V9.81423C191.119 12.0529 191.639 13.7219 192.679 14.8213C193.739 15.9306 195.219 16.4803 197.119 16.4803C199.018 16.4803 200.498 15.9306 201.538 14.8213C202.592 13.7219 203.118 12.0529 203.118 9.81423V0.0699588H203.598V9.83422C203.598 12.1995 203.015 13.9751 201.848 15.1611C200.698 16.3404 199.118 16.93 197.119 16.93ZM228.247 16.8601V0.0699588H228.727V11.7531L240.106 0.0699588H240.756L233.266 7.77543L241.306 16.8601H240.656L232.916 8.09524L228.727 12.3927V16.8601H228.247ZM247.366 16.4103H258.075V16.8601H246.886V0.0699588H257.715V0.529688H247.366V8.10523H256.635V8.56496H247.366V16.4103ZM268.094 16.8601V0.529688H261.855V0.0699588H274.814V0.529688H268.574V16.8601H268.094ZM280.584 16.4103H291.283V16.8601H280.094V0.0699588H290.923V0.529688H280.584V8.10523H289.843V8.56496H280.584V16.4103ZM315.982 16.93V0.139918H321.661C323.041 0.139918 324.221 0.359788 325.191 0.809524C326.181 1.23927 326.941 1.8689 327.471 2.67842C328.001 3.49794 328.261 4.48736 328.261 5.65667C328.261 6.806 328.001 7.79541 327.471 8.63492C326.941 9.44444 326.181 10.0741 325.191 10.5238C324.871 10.6737 324.521 10.7937 324.151 10.8836L328.501 16.93H327.901L323.631 11.0035C323.031 11.1135 322.371 11.1734 321.661 11.1734H316.462V16.93H315.982ZM103.084 10.6537H108.334C110.304 10.6537 111.804 10.214 112.843 9.33451C113.883 8.43504 114.413 7.18577 114.413 5.58671C114.413 3.97766 113.883 2.7284 112.843 1.84891C111.804 0.96943 110.304 0.529688 108.334 0.529688H103.084V10.6537ZM316.462 10.7137H321.711C323.678 10.7137 325.181 10.274 326.221 9.39447C327.261 8.505 327.781 7.25573 327.781 5.65667C327.781 4.03762 327.261 2.79835 326.221 1.91887C325.181 1.03939 323.678 0.599647 321.711 0.599647H316.462V10.7137Z" fill="#F1E3E4"/>
</svg>
