<svg width="35" height="35" fill="#F1E3E4" xmlns="http://www.w3.org/2000/svg">
    <path d="M18.2 10.7a.593.593 0 0 1-.6-.588C17.6 7.84 19.48 6 21.798 6a.598.598 0 0 1 .422.169.59.59 0 0 1 .178.418c0 2.272-1.88 4.112-4.199 4.112Z"/>
    <path d="M18.2 10.7a.59.59 0 0 1-.552-.361.603.603 0 0 1-.048-.227C17.6 7.84 19.48 6 21.799 6a.593.593 0 0 1 .6.587c0 2.272-1.88 4.112-4.199 4.112Zm8.76 12.369c.232.17.308.48.176.733C25.024 27.939 23.339 30 21.8 30c-.717 0-1.421-.227-2.108-.669a3.173 3.173 0 0 0-3.316-.07c-.832.488-1.624.74-2.376.74-2.264 0-6-6.828-6-10.574 0-4 2.143-7.05 5.4-7.05 1.533 0 2.856.221 3.968.671.47.189 1.003.176 1.462-.04.902-.425 2.093-.63 3.568-.63 1.803 0 3.376.88 4.682 2.584a.584.584 0 0 1 .114.436.592.592 0 0 1-.234.386c-1.458 1.072-2.16 2.274-2.16 3.643 0 1.368.702 2.572 2.16 3.642Z"/>
    <path d="M26.96 23.069c.232.17.308.48.176.733C25.024 27.939 23.339 30 21.8 30c-.717 0-1.421-.227-2.108-.669a3.173 3.173 0 0 0-3.316-.07c-.832.488-1.624.74-2.376.74-2.264 0-6-6.828-6-10.574 0-4 2.143-7.05 5.4-7.05 1.533 0 2.856.221 3.968.671.47.189 1.003.176 1.462-.04.902-.425 2.093-.63 3.568-.63 1.803 0 3.376.88 4.682 2.584a.584.584 0 0 1 .114.436.592.592 0 0 1-.234.386c-1.458 1.072-2.16 2.274-2.16 3.643 0 1.368.702 2.572 2.16 3.642Z"/>
</svg>
