<svg width="35" height="35" fill="none" xmlns="http://www.w3.org/2000/svg">
    <defs>
        <clipPath id="a">
            <path fill="#fff" fill-opacity="0" d="M0 0h35v35H0z"/>
        </clipPath>
    </defs>
    <path fill="none" d="M0 0h35v35H0z"/>
    <g clip-path="url(#a)">
        <path d="M30 10.316a9.871 9.871 0 0 1-2.827.775 4.938 4.938 0 0 0 2.164-2.724 9.834 9.834 0 0 1-3.126 1.195 4.922 4.922 0 0 0-8.39 4.49 13.983 13.983 0 0 1-10.15-5.145 4.926 4.926 0 0 0 1.523 6.575 4.91 4.91 0 0 1-2.23-.616v.06a4.93 4.93 0 0 0 3.95 4.83 4.948 4.948 0 0 1-2.225.084 4.928 4.928 0 0 0 4.601 3.42A9.877 9.877 0 0 1 6 25.3a13.931 13.931 0 0 0 7.547 2.213c9.06 0 14.01-7.503 14.01-14.01 0-.212-.003-.427-.013-.637A10.01 10.01 0 0 0 30 10.316Z" fill="#F1E3E4"/>
    </g>
</svg>
