<svg width="35" height="35" fill="none" xmlns="http://www.w3.org/2000/svg">
    <defs>
        <clipPath id="a">
            <path fill="#fff" fill-opacity="0" d="M0 0h35v35H0z"/>
        </clipPath>
    </defs>
    <path fill="none" d="M0 0h35v35H0z"/>
    <g clip-path="url(#a)">
        <path d="M18 7C11.95 7 7 11.95 7 18s4.95 11 11 11 11-4.95 11-11S24.05 7 18 7Zm5.088 15.813c-.138.274-.688.412-.963.274-2.888-1.65-6.463-2.062-9.625-1.1-.412 0-.688-.137-.825-.55 0-.274.137-.687.55-.825 3.575-1.1 7.425-.55 10.725 1.238.138.275.275.688.138.962Zm1.375-2.888c-.276.412-.825.55-1.238.275-3.3-1.925-7.288-2.337-11-1.238-.412.138-.962-.137-1.1-.55-.138-.55.138-.962.55-1.237a15.613 15.613 0 0 1 12.375 1.512c.413.275.55.825.413 1.238Zm0-3.163c-3.575-2.062-9.35-2.337-12.788-1.237-.55.137-1.1-.138-1.238-.688-.137-.55.138-1.1.688-1.374 3.85-1.1 10.313-.963 14.438 1.512.55.275.687.963.412 1.375-.413.55-.962.688-1.512.412Z" fill="#F1E3E4" fill-rule="evenodd"/>
    </g>
</svg>
