<svg width="35" height="35" fill="none" xmlns="http://www.w3.org/2000/svg">
    <defs>
        <clipPath id="a">
            <path fill="#fff" fill-opacity="0" d="M0 0h35v35H0z"/>
        </clipPath>
    </defs>
    <path fill="none" d="M0 0h35v35H0z"/>
    <g clip-path="url(#a)" fill="#F1E3E4">
        <path d="M18 15a2.999 2.999 0 1 0 0 5.998A2.999 2.999 0 0 0 18 15Z"/>
        <path d="M14 8a6 6 0 0 0-6 6v8a5.997 5.997 0 0 0 6 6h8a6 6 0 0 0 6-6v-8a5.997 5.997 0 0 0-6-6h-8Zm-.667 10a4.667 4.667 0 1 1 9.335.001A4.667 4.667 0 0 1 13.333 18Zm9.334-4.667H24V12h-1.333v1.333Z" fill-rule="evenodd"/>
    </g>
</svg>
