<svg width="35" height="35" fill="none" xmlns="http://www.w3.org/2000/svg">
    <defs>
        <clipPath id="a">
            <path fill="#fff" fill-opacity="0" d="M0 0h35v35H0z"/>
        </clipPath>
    </defs>
    <path fill="none" d="M0 0h35v35H0z"/>
    <g clip-path="url(#a)">
        <path d="M18.077 9h.134c1.232.005 7.48.05 9.165.503a3.01 3.01 0 0 1 2.123 2.13c.151.57.258 1.324.33 2.103l.015.156.033.39.012.156c.097 1.37.109 2.655.111 2.935v.113a48.208 48.208 0 0 1-.123 3.09l-.012.158-.013.156c-.076.858-.187 1.71-.353 2.337a3.013 3.013 0 0 1-2.123 2.13c-1.74.468-8.354.501-9.27.503h-.213c-.463 0-2.381-.01-4.391-.078l-.255-.01-.13-.005-.257-.01-.256-.012c-1.665-.073-3.251-.192-3.982-.39A3.01 3.01 0 0 1 6.5 23.227c-.167-.626-.278-1.48-.353-2.337l-.012-.158-.012-.156A46.868 46.868 0 0 1 6 17.522v-.184a48.75 48.75 0 0 1 .096-2.668l.01-.154.005-.078.012-.156.033-.39.015-.156c.072-.779.179-1.535.33-2.103a3.012 3.012 0 0 1 2.123-2.13c.73-.195 2.316-.315 3.98-.39l.256-.011.258-.009.13-.004.256-.011c1.427-.046 2.855-.071 4.284-.076h.29V9Zm-2.476 4.815v7.228l6.236-3.613-6.236-3.615Z" fill="#F1E3E4"/>
    </g>
</svg>
