<svg width="35" height="35" fill="none" xmlns="http://www.w3.org/2000/svg">
    <defs>
        <clipPath id="a">
            <path fill="#fff" fill-opacity="0" d="M0 0h35v35H0z"/>
        </clipPath>
    </defs>
    <path fill="none" d="M0 0h35v35H0z"/>
    <g clip-path="url(#a)">
        <path d="M3.547 23.621c.065 0 .12-.052.13-.124l.36-2.696-.36-2.758a.137.137 0 0 0-.133-.124.137.137 0 0 0-.132.124L3.098 20.8l.314 2.695a.138.138 0 0 0 .135.125Zm-1.185-1.025c.065 0 .118-.048.127-.12l.279-1.675-.279-1.706c-.009-.07-.062-.12-.127-.12-.067 0-.12.05-.13.12L2 20.8l.232 1.675c.01.07.063.12.13.12ZM4.96 17.53a.165.165 0 0 0-.05-.107.166.166 0 0 0-.11-.045.159.159 0 0 0-.158.152l-.3 3.272.3 3.152c.003.041.02.079.05.107.03.027.069.043.11.043a.16.16 0 0 0 .16-.15l.338-3.152-.34-3.272Zm1.11 6.7c.047 0 .092-.019.126-.052a.19.19 0 0 0 .06-.124l.321-3.252-.32-3.362a.191.191 0 0 0-.188-.176.188.188 0 0 0-.186.177l-.284 3.361.282 3.252a.189.189 0 0 0 .058.127c.036.033.082.05.13.05Zm1.277.054a.217.217 0 0 0 .215-.203l.302-3.279-.301-3.12a.217.217 0 0 0-.216-.2.212.212 0 0 0-.213.203l-.268 3.119.268 3.277a.212.212 0 0 0 .213.203Zm1.813-3.48-.283-5.074a.245.245 0 0 0-.242-.23.243.243 0 0 0-.243.23l-.25 5.074.25 3.277a.247.247 0 0 0 .243.219.243.243 0 0 0 .242-.219l.283-3.277Zm.775 3.513a.267.267 0 0 0 .268-.256v.003l.265-3.259-.265-6.235a.273.273 0 0 0-.27-.251.27.27 0 0 0-.27.251l-.232 6.235.233 3.257a.27.27 0 0 0 .27.255Zm1.306-10.548a.295.295 0 0 0-.297.283l-.217 6.753.217 3.224a.292.292 0 0 0 .297.281.295.295 0 0 0 .298-.28l.246-3.225-.246-6.753a.295.295 0 0 0-.298-.283Zm1.319 10.548a.32.32 0 0 0 .326-.31v.003l.226-3.205-.226-6.98a.321.321 0 0 0-.324-.31.317.317 0 0 0-.324.31l-.205 6.98.204 3.205a.316.316 0 0 0 .323.307Zm1.33-.003a.347.347 0 0 0 .351-.336v.003l.21-3.175-.21-6.804a.344.344 0 0 0-.35-.333.348.348 0 0 0-.352.333l-.184 6.804.185 3.174a.344.344 0 0 0 .35.333v.001Zm1.909-3.508-.19-6.556a.373.373 0 0 0-.379-.36.373.373 0 0 0-.38.362l-.168 6.554.169 3.155a.374.374 0 0 0 .38.36.375.375 0 0 0 .378-.364v.004l.19-3.155Zm.781 3.52c.22 0 .401-.173.405-.386l.172-3.132-.172-7.8a.402.402 0 0 0-.405-.388.407.407 0 0 0-.407.388l-.153 7.797.153 3.136c.005.21.187.385.407.385Zm1.346-12.44a.43.43 0 0 0-.437.414l-.178 8.51.18 3.086a.43.43 0 0 0 .433.41.43.43 0 0 0 .433-.415v.005l.194-3.087-.195-8.508a.428.428 0 0 0-.43-.415Zm1.228 12.443 10.909.005c2.174 0 3.937-1.69 3.937-3.777 0-2.085-1.763-3.776-3.938-3.776-.538 0-1.052.105-1.522.293C28.23 13.671 25.253 11 21.624 11c-.887 0-1.752.168-2.516.452-.297.11-.378.224-.38.444v11.985a.466.466 0 0 0 .427.447Z" fill="#F1E3E4"/>
    </g>
</svg>
