<svg width="35" height="35" viewBox="0 0 35 35" fill="000" xmlns="http://www.w3.org/2000/svg">
    <path d="M29.4343 11.0312C29.153 11.9228 28.7738 12.6988 28.2987 13.4035L28.3185 13.372C27.8517 14.156 27.2943 15.062 26.6463 16.0897C26.0907 16.9011 25.7965 17.3211 25.7639 17.3498C25.6201 17.5315 25.5201 17.7541 25.4857 17.9988L25.4847 18.0062C25.5128 18.2288 25.6149 18.4231 25.7639 18.568L26.1806 19.0363C28.4102 21.3459 29.6642 22.9379 29.9427 23.8123C29.9792 23.9089 30 24.0202 30 24.1368C30 24.3405 29.9354 24.5285 29.826 24.6829L29.8281 24.6797C29.6447 24.8698 29.3884 24.9874 29.1051 24.9874C29.0738 24.9874 29.0415 24.9863 29.0113 24.9832H29.0155H26.2744C26.2733 24.9832 26.2713 24.9832 26.2692 24.9832C25.9181 24.9832 25.5951 24.8593 25.3419 24.6535L25.3451 24.6556C24.9762 24.35 24.6481 24.0192 24.3543 23.66L24.3449 23.6474C23.8649 23.1007 23.4392 22.6404 23.0676 22.2665C21.8299 21.0806 20.9165 20.4876 20.3276 20.4876C20.3057 20.4855 20.2807 20.4845 20.2546 20.4845C20.0827 20.4845 19.9223 20.538 19.79 20.6294L19.7931 20.6273C19.6847 20.7638 19.6191 20.9402 19.6191 21.1303C19.6191 21.1681 19.6212 21.2038 19.6264 21.2405V21.2363C19.5983 21.5661 19.5816 21.9494 19.5816 22.3369C19.5816 22.4618 19.5837 22.5858 19.5868 22.7097V22.6918V23.9089C19.5972 23.9583 19.6035 24.015 19.6035 24.0727C19.6035 24.3269 19.4889 24.5537 19.3097 24.7039L19.3086 24.7049C18.9054 24.8908 18.4345 25 17.9376 25C17.8313 25 17.7271 24.9947 17.624 24.9853L17.6375 24.9863C15.9977 24.9548 14.4766 24.4707 13.1837 23.6548L13.2201 23.6758C11.6459 22.7118 10.3415 21.4569 9.3476 19.9741L9.31947 19.93C8.37556 18.6677 7.49521 17.2417 6.74508 15.7379L6.67215 15.5762C6.23354 14.734 5.7793 13.6985 5.38756 12.6337L5.32505 12.4394C5.16565 11.9606 5.05001 11.404 5.00208 10.8275L5 10.8012C5 10.2706 5.30977 10.0053 5.92932 10.0053H8.66936C8.69437 10.0032 8.72354 10.0021 8.75375 10.0021C9.01213 10.0021 9.25071 10.0914 9.43928 10.2415L9.4372 10.2394C9.64557 10.4694 9.79976 10.7519 9.87581 11.0669L9.87894 11.0795C10.3832 12.5151 10.9177 13.7206 11.5323 14.8757L11.4625 14.7319C11.9647 15.7505 12.52 16.6273 13.1534 17.437L13.1295 17.4044C13.6851 18.0919 14.1185 18.4357 14.4297 18.4357C14.4391 18.4367 14.4505 18.4367 14.463 18.4367C14.6172 18.4367 14.7516 18.3527 14.8246 18.2267L14.8256 18.2246C14.9027 18.0251 14.9475 17.793 14.9475 17.5515C14.9475 17.5 14.9454 17.4485 14.9412 17.3981V17.4044V13.331C14.9194 12.8511 14.8027 12.4027 14.6079 12.0005L14.6162 12.0204C14.487 11.7432 14.3318 11.5038 14.1474 11.2906L14.1505 11.2948C13.9796 11.1226 13.8629 10.8968 13.8265 10.6448L13.8254 10.6385C13.8254 10.46 13.9067 10.2993 14.0338 10.1943L14.0348 10.1932C14.1609 10.0767 14.3297 10.0063 14.5141 10.0063H14.5224H18.8419C18.8648 10.0032 18.8909 10.0021 18.9179 10.0021C19.1211 10.0021 19.3034 10.0945 19.4243 10.2394L19.4253 10.2405C19.5326 10.4379 19.5962 10.6742 19.5962 10.9241C19.5962 10.964 19.5941 11.0029 19.591 11.0417V11.0365V16.4688C19.5889 16.494 19.5878 16.5234 19.5878 16.5528C19.5878 16.746 19.641 16.9277 19.7327 17.082L19.7306 17.0778C19.8066 17.1913 19.9337 17.2648 20.0775 17.2648C20.2609 17.2522 20.4286 17.1913 20.5693 17.0947L20.5661 17.0968C20.8495 16.9004 21.0933 16.6767 21.3048 16.4236L21.309 16.4184C21.9414 15.698 22.5248 14.902 23.0332 14.0556L23.0738 13.9821C23.4322 13.3835 23.8198 12.6463 24.1709 11.8892L24.2355 11.7348L24.7002 10.7981C24.8616 10.3297 25.295 10 25.8045 10C25.8243 10 25.8441 10 25.8639 10.0011H25.8608H28.6018C29.3423 10.0011 29.6201 10.3444 29.4353 11.0312H29.4343Z"/>
</svg>
