<svg width="345.019531" height="17.011841" viewBox="0 0 345.02 17.0118" fill="none" xmlns="http://www.w3.org/2000/svg" xmlns:xlink="http://www.w3.org/1999/xlink">
	<desc>
			Created with Pixso.
	</desc>
	<defs/>
	<path id="Logo" d="M215.958 16.944C214.742 16.944 213.59 16.72 212.502 16.272C211.43 15.824 210.614 15.256 210.054 14.568L210.39 14.256C210.918 14.88 211.678 15.408 212.67 15.84C213.678 16.272 214.766 16.488 215.934 16.488C217.149 16.488 218.142 16.32 218.91 15.984C219.693 15.648 220.27 15.2 220.638 14.64C221.021 14.064 221.214 13.432 221.214 12.744C221.214 11.944 221.021 11.304 220.638 10.824C220.254 10.328 219.742 9.94397 219.102 9.672C218.462 9.38397 217.766 9.15198 217.014 8.97601C216.262 8.784 215.502 8.59198 214.733 8.40002Q213.605 8.112 212.646 7.65601C212.006 7.336 211.494 6.90399 211.109 6.35999Q210.534 5.54401 210.534 4.224Q210.534 3.72614 210.651 3.25751Q210.794 2.68707 211.109 2.15997C211.51 1.52002 212.118 1 212.934 0.599976C213.766 0.200012 214.838 0 216.149 0C217.046 0 217.926 0.143982 218.79 0.432007Q220.109 0.840027 221.021 1.53601L220.758 1.91998C220.086 1.42401 219.342 1.05597 218.525 0.815979C217.71 0.575989 216.926 0.455994 216.174 0.455994Q214.422 0.455994 213.27 0.984009C212.502 1.32001 211.934 1.776 211.565 2.35199C211.198 2.91199 211.014 3.54401 211.014 4.24799Q211.014 5.47198 211.59 6.216C211.974 6.69598 212.485 7.08002 213.126 7.36798C213.766 7.64001 214.462 7.87201 215.214 8.06403C215.981 8.23999 216.742 8.43201 217.494 8.64001C218.246 8.83197 218.941 9.08801 219.582 9.40802C220.222 9.71198 220.733 10.128 221.118 10.656Q221.693 11.448 221.693 12.744C221.693 13.48 221.494 14.168 221.094 14.808C220.693 15.448 220.07 15.968 219.222 16.368C218.374 16.752 217.286 16.944 215.958 16.944ZM298.48 16.4116L309.184 16.4116L309.184 16.8676L298 16.8676L298 0.067627L308.824 0.067627L308.824 0.523621L298.48 0.523621L298.48 8.1076L307.744 8.1076L307.744 8.5636L298.48 8.5636L298.48 16.4116ZM339.283 17.0118C338.067 17.0118 336.916 16.7878 335.828 16.3398C334.756 15.8918 333.939 15.3239 333.38 14.6358L333.716 14.3239C334.244 14.9478 335.004 15.4758 335.996 15.9078C337.004 16.3398 338.092 16.5558 339.26 16.5558C340.476 16.5558 341.468 16.3878 342.235 16.0518C343.02 15.7158 343.596 15.2678 343.964 14.7078C344.348 14.1318 344.54 13.4998 344.54 12.8118C344.54 12.0118 344.348 11.3718 343.964 10.8918C343.58 10.3958 343.067 10.0118 342.428 9.73981C341.788 9.45184 341.092 9.21985 340.34 9.04382C339.588 8.85181 338.828 8.65985 338.06 8.46783C337.308 8.27582 336.611 8.02783 335.972 7.72382C335.332 7.40381 334.819 6.9718 334.436 6.42786C334.052 5.88385 333.859 5.17181 333.859 4.29181C333.859 3.55585 334.052 2.86786 334.436 2.22784Q335.035 1.26782 336.26 0.667847C337.092 0.267822 338.164 0.0678101 339.476 0.0678101Q339.935 0.0678101 340.387 0.118103L340.388 0.118164L340.389 0.118286Q341.263 0.215454 342.115 0.499817C342.996 0.771851 343.739 1.13983 344.348 1.60382L344.084 1.98785C343.412 1.49182 342.668 1.12384 341.852 0.88385C341.036 0.643799 340.252 0.523804 339.5 0.523804C338.332 0.523804 337.363 0.699829 336.596 1.05182C335.828 1.38782 335.26 1.84381 334.892 2.4198C334.523 2.97986 334.34 3.61182 334.34 4.31586C334.34 5.13184 334.531 5.78784 334.916 6.28381C335.3 6.76385 335.812 7.14783 336.452 7.43585C337.092 7.70782 337.788 7.93982 338.54 8.13184C339.308 8.3078 340.067 8.49982 340.819 8.70782C341.571 8.89984 342.268 9.15582 342.907 9.47583C343.548 9.77985 344.06 10.1958 344.443 10.7238C344.828 11.2518 345.02 11.9478 345.02 12.8118C345.02 13.5479 344.819 14.2358 344.42 14.8759C344.02 15.5158 343.396 16.0358 342.548 16.4359C341.699 16.8198 340.611 17.0118 339.283 17.0118ZM6.24023 16.872L6.24023 0.528015L0 0.528015L0 0.0720215L12.96 0.0720215L12.96 0.528015L6.71973 0.528015L6.71973 16.872L6.24023 16.872ZM18.7246 16.872L18.2441 16.872L18.2441 0.0720215L18.7246 0.0720215L18.7246 8.112L30.9648 8.112L30.9648 0.0720215L31.4443 0.0720215L31.4443 16.872L30.9648 16.872L30.9648 8.56799L18.7246 8.56799L18.7246 16.872ZM40.3184 16.416L51.0225 16.416L51.0225 16.872L39.8379 16.872L39.8379 0.0720215L50.6621 0.0720215L50.6621 0.528015L40.3184 0.528015L40.3184 8.112L49.582 8.112L49.582 8.56799L40.3184 8.56799L40.3184 16.416ZM69.0137 16.872L69.0137 0.528015L62.7734 0.528015L62.7734 0.0720215L75.7334 0.0720215L75.7334 0.528015L69.4932 0.528015L69.4932 16.872L69.0137 16.872ZM81.498 16.872L81.0176 16.872L81.0176 0.0720215L81.498 0.0720215L81.498 8.112L93.7383 8.112L93.7383 0.0720215L94.2178 0.0720215L94.2178 16.872L93.7383 16.872L93.7383 8.56799L81.498 8.56799L81.498 16.872ZM102.611 16.872L102.611 0.0720215L108.3 0.0720215C109.676 0.0720215 110.852 0.296021 111.827 0.744019C112.819 1.17603 113.58 1.79999 114.107 2.61603Q114.899 3.84003 114.899 5.59198Q114.899 7.26312 114.159 8.48535L114.155 8.49158Q114.132 8.53003 114.107 8.56799C113.58 9.38397 112.819 10.016 111.827 10.464C111.502 10.6083 111.153 10.7285 110.782 10.8246L115.14 16.872L114.54 16.872L110.266 10.9402Q109.362 11.112 108.3 11.112L103.092 11.112L103.092 16.872L102.611 16.872ZM122.271 16.416L132.976 16.416L132.976 16.872L121.791 16.872L121.791 0.0720215L132.615 0.0720215L132.615 0.528015L122.271 0.528015L122.271 8.112L131.535 8.112L131.535 8.56799L122.271 8.56799L122.271 16.416ZM140.303 16.416L151.007 16.416L151.007 16.872L139.822 16.872L139.822 0.0720215L150.646 0.0720215L150.646 0.528015L140.303 0.528015L140.303 8.112L149.566 8.112L149.566 8.56799L140.303 8.56799L140.303 16.416ZM165.854 16.872L165.854 0.0720215L166.262 0.0720215L174.146 13.851L182.006 0.0720215L182.414 0.0720215L182.414 16.872L181.934 16.872L181.934 1.10388L174.277 14.496L173.99 14.496L166.334 1.14471L166.334 16.872L165.854 16.872ZM197.135 16.944Q194.751 16.944 193.155 15.8226L193.154 15.8221Q192.742 15.5324 192.383 15.168C191.231 13.984 190.655 12.208 190.655 9.84003L190.655 0.0720215L191.135 0.0720215L191.135 9.81598C191.135 12.056 191.655 13.728 192.695 14.832C193.751 15.936 195.231 16.488 197.135 16.488C199.039 16.488 200.511 15.936 201.551 14.832Q203.135 13.176 203.135 9.81598L203.135 0.0720215L203.615 0.0720215L203.615 9.84003Q203.615 13.392 201.863 15.168C200.711 16.352 199.135 16.944 197.135 16.944ZM228.268 16.872L228.268 0.0720215L228.748 0.0720215L228.748 11.7574L240.124 0.0720215L240.771 0.0720215L233.28 7.77875L241.324 16.872L240.676 16.872L232.932 8.10461L228.748 12.4053L228.748 16.872L228.268 16.872ZM247.389 16.416L258.093 16.416L258.093 16.872L246.908 16.872L246.908 0.0720215L257.732 0.0720215L257.732 0.528015L247.389 0.528015L247.389 8.112L256.652 8.112L256.652 8.56799L247.389 8.56799L247.389 16.416ZM268.115 16.872L268.115 0.528015L261.875 0.528015L261.875 0.0720215L274.835 0.0720215L274.835 0.528015L268.595 0.528015L268.595 16.872L268.115 16.872ZM280.6 16.416L291.304 16.416L291.304 16.872L280.119 16.872L280.119 0.0720215L290.943 0.0720215L290.943 0.528015L280.6 0.528015L280.6 8.112L289.863 8.112L289.863 8.56799L280.6 8.56799L280.6 16.416ZM316 16.9398L316 0.139832L321.688 0.139832C323.064 0.139832 324.24 0.363831 325.216 0.811829C326.208 1.24384 326.968 1.86786 327.496 2.68384C328.024 3.49982 328.288 4.49182 328.288 5.65985C328.288 6.81183 328.024 7.80383 327.496 8.6358C326.968 9.45184 326.208 10.0838 325.216 10.5318C324.89 10.6761 324.542 10.7963 324.171 10.8925L328.528 16.9398L327.928 16.9398L323.654 11.0081C323.052 11.1226 322.396 11.1798 321.688 11.1798L316.48 11.1798L316.48 16.9398L316 16.9398ZM103.092 10.656L108.348 10.656C110.315 10.656 111.819 10.216 112.859 9.336C113.899 8.44 114.42 7.19202 114.42 5.59198C114.42 3.97601 113.899 2.72803 112.859 1.84802C111.819 0.968018 110.315 0.528015 108.348 0.528015L103.092 0.528015L103.092 10.656ZM316.48 10.7238L321.736 10.7238Q324.688 10.7238 326.248 9.40381C327.288 8.50781 327.808 7.25983 327.808 5.65985C327.808 4.04382 327.288 2.79584 326.248 1.91583Q324.688 0.595825 321.736 0.595825L316.48 0.595825L316.48 10.7238Z" fill="#F1E3E4" fill-opacity="1.000000" fill-rule="evenodd"/>
</svg>
