<svg width="35" height="35" viewBox="0 0 35 35" fill="none" xmlns="http://www.w3.org/2000/svg">
<path d="M18.077 9H18.211C19.443 9.005 25.691 9.05 27.376 9.503C27.8856 9.64072 28.3499 9.91001 28.7226 10.2839C29.0952 10.6577 29.363 11.123 29.499 11.633C29.65 12.203 29.757 12.957 29.829 13.736L29.844 13.892L29.877 14.282L29.889 14.438C29.986 15.808 29.998 17.093 30 17.373V17.486C29.9921 18.5171 29.951 19.5476 29.877 20.576L29.865 20.734L29.852 20.89C29.776 21.748 29.665 22.6 29.499 23.227C29.3627 23.7369 29.0948 24.202 28.7222 24.5758C28.3497 24.9496 27.8854 25.219 27.376 25.357C25.636 25.825 19.022 25.858 18.106 25.86H17.893C17.43 25.86 15.512 25.85 13.502 25.782L13.247 25.772L13.117 25.767L12.86 25.757L12.604 25.745C10.939 25.672 9.353 25.553 8.622 25.355C8.11286 25.2173 7.64885 24.9482 7.27643 24.5748C6.90401 24.2013 6.63626 23.7365 6.5 23.227C6.333 22.601 6.222 21.747 6.147 20.89L6.135 20.732L6.123 20.576C6.04881 19.5596 6.00779 18.5411 6 17.522V17.338C6.00764 16.448 6.03965 15.5583 6.096 14.67L6.106 14.516L6.111 14.438L6.123 14.282L6.156 13.892L6.171 13.736C6.243 12.957 6.35 12.201 6.501 11.633C6.63722 11.1231 6.90505 10.6579 7.27765 10.2841C7.65024 9.91026 8.11453 9.6409 8.624 9.503C9.354 9.308 10.94 9.188 12.604 9.113L12.86 9.102L13.118 9.093L13.248 9.089L13.504 9.078C14.931 9.032 16.359 9.007 17.788 9.002H18.078L18.077 9ZM15.601 13.815V21.043L21.837 17.43L15.601 13.815Z" fill="#F1E3E4"/>
</svg>
