<svg width="35" height="35" viewBox="0 0 35 35" fill="none" xmlns="http://www.w3.org/2000/svg">
<path d="M18 15C17.2046 15 16.4418 15.316 15.8794 15.8784C15.317 16.4408 15.001 17.2036 15.001 17.999C15.001 18.7944 15.317 19.5572 15.8794 20.1196C16.4418 20.682 17.2046 20.998 18 20.998C18.7954 20.998 19.5582 20.682 20.1206 20.1196C20.683 19.5572 20.999 18.7944 20.999 17.999C20.999 17.2036 20.683 16.4408 20.1206 15.8784C19.5582 15.316 18.7954 15 18 15Z" fill="#F1E3E4"/>
<path fill-rule="evenodd" clip-rule="evenodd" d="M14 8C12.4087 8 10.8826 8.63214 9.75736 9.75736C8.63214 10.8826 8 12.4087 8 14V22C7.99961 22.788 8.15453 23.5684 8.45592 24.2966C8.75731 25.0247 9.19925 25.6863 9.75648 26.2435C10.3137 26.8008 10.9753 27.2427 11.7034 27.5441C12.4316 27.8455 13.212 28.0004 14 28H22C23.5913 28 25.1174 27.3679 26.2426 26.2426C27.3679 25.1174 28 23.5913 28 22V14C28.0004 13.212 27.8455 12.4316 27.5441 11.7034C27.2427 10.9753 26.8008 10.3137 26.2435 9.75648C25.6863 9.19925 25.0247 8.75731 24.2966 8.45592C23.5684 8.15453 22.788 7.99961 22 8H14ZM13.333 18C13.3331 16.7621 13.825 15.575 14.7004 14.6997C15.1339 14.2664 15.6485 13.9226 16.2148 13.6881C16.7811 13.4536 17.3881 13.3329 18.001 13.333C18.6139 13.3331 19.2209 13.4539 19.7871 13.6885C20.3534 13.9231 20.8679 14.267 21.3013 14.7004C21.7346 15.1339 22.0784 15.6485 22.3129 16.2148C22.5474 16.7811 22.6681 17.3881 22.668 18.001C22.6679 19.2389 22.176 20.426 21.3006 21.3013C20.4251 22.1765 19.2379 22.6681 18 22.668C16.7621 22.6679 15.575 22.176 14.6997 21.3006C13.8245 20.4251 13.3329 19.2379 13.333 18ZM22.667 13.333H24V12H22.667V13.333Z" fill="#F1E3E4"/>
</svg>
