<svg width="35" height="35" viewBox="0 0 35 35" fill="none" xmlns="http://www.w3.org/2000/svg">
    <path d="M25.1827 22.837H23.3663C22.6786 22.837 22.4661 22.2902 21.2307 21.0381C20.1545 19.9962 19.6786 19.8561 19.4143 19.8561C19.0434 19.8561 18.9375 19.962 18.9375 20.4738V22.1143C18.9375 22.5561 18.7966 22.8203 17.6321 22.8203C15.2831 22.6628 13.2641 21.3816 12.0921 19.5144L12.0746 19.4852C10.7142 17.7955 9.71141 15.7591 9.21543 13.5317L9.19709 13.4342C9.19709 13.17 9.30296 12.9224 9.81478 12.9224H11.6312C12.0896 12.9224 12.2663 13.1341 12.4439 13.6276C13.3425 16.2217 14.843 18.4974 15.4606 18.4974C15.6899 18.4974 15.7957 18.3915 15.7957 17.8097V15.1264C15.7249 13.891 15.0722 13.786 15.0722 13.345C15.0797 13.1091 15.2731 12.9207 15.5098 12.9207C15.5173 12.9207 15.524 12.9207 15.5315 12.9215H15.5307H18.389C18.7775 12.9215 18.9183 13.1333 18.9183 13.5917V17.2095C18.9183 17.5971 19.0951 17.7388 19.2009 17.7388C19.4302 17.7388 19.6252 17.5971 20.0478 17.1745C20.9264 16.1017 21.6775 14.8746 22.2502 13.5517L22.2885 13.4517C22.4094 13.1491 22.6995 12.939 23.0387 12.939C23.0546 12.939 23.0696 12.9399 23.0854 12.9407H23.0829H24.8993C25.4461 12.9407 25.5703 13.2216 25.4461 13.6109C24.7176 15.2156 23.899 16.5943 22.9504 17.8714L22.9937 17.8097C22.8003 18.1273 22.7295 18.2681 22.9937 18.6224C23.1871 18.8867 23.8231 19.4335 24.2466 19.9278C24.8593 20.5338 25.3728 21.239 25.7604 22.0176L25.7812 22.0635C25.958 22.5736 25.6929 22.8387 25.1811 22.8387L25.1827 22.837ZM21.3374 5H13.6626C6.658 5 5 6.658 5 13.6626V21.3374C5 28.342 6.658 30 13.6626 30H21.3374C28.342 30 30 28.342 30 21.3374V13.6626C30 6.658 28.3237 5 21.3374 5Z"
          fill="#F1E3E4"/>
</svg>
