<svg width="35" height="35" viewBox="0 0 35 35" fill="none" xmlns="http://www.w3.org/2000/svg">
<path d="M30 10.316C29.1015 10.7136 28.1487 10.9748 27.173 11.091C28.2009 10.4756 28.97 9.50744 29.337 8.367C28.3709 8.94101 27.3136 9.34519 26.211 9.562C25.4706 8.76765 24.4882 8.24047 23.4169 8.06257C22.3457 7.88467 21.2456 8.06604 20.2882 8.57843C19.3307 9.09082 18.5696 9.90546 18.1234 10.8955C17.6771 11.8855 17.5708 12.9953 17.821 14.052C15.863 13.9538 13.9476 13.4451 12.1989 12.5587C10.4503 11.6723 8.90764 10.4282 7.671 8.907C7.04022 9.99089 6.84659 11.2746 7.12958 12.4963C7.41258 13.718 8.15089 14.7858 9.194 15.482C8.41221 15.4572 7.64766 15.246 6.964 14.866V14.926C6.96437 16.0631 7.35782 17.1651 8.07769 18.0454C8.79755 18.9256 9.79958 19.53 10.914 19.756C10.1883 19.9527 9.42742 19.9814 8.689 19.84C9.00339 20.8187 9.61599 21.6746 10.441 22.2879C11.266 22.9011 12.2622 23.241 13.29 23.26C12.2687 24.0627 11.0991 24.6561 9.8482 25.0061C8.59727 25.3562 7.28958 25.456 6 25.3C8.25091 26.7472 10.871 27.5155 13.547 27.513C22.607 27.513 27.557 20.01 27.557 13.503C27.557 13.291 27.554 13.076 27.544 12.866C28.5077 12.1687 29.3393 11.3052 30 10.316Z" fill="#F1E3E4"/>
</svg>
