<svg width="35" height="35" viewBox="0 0 35 35" fill="none" xmlns="http://www.w3.org/2000/svg">
<path fill-rule="evenodd" clip-rule="evenodd" d="M18 7C11.95 7 7 11.95 7 18C7 24.05 11.95 29 18 29C24.05 29 29 24.05 29 18C29 11.95 24.05 7 18 7ZM23.088 22.813C22.95 23.087 22.4 23.225 22.125 23.087C19.237 21.437 15.662 21.025 12.5 21.987C12.088 21.987 11.812 21.85 11.675 21.437C11.675 21.163 11.812 20.75 12.225 20.612C15.8 19.512 19.65 20.062 22.95 21.85C23.088 22.125 23.225 22.539 23.088 22.813ZM24.463 19.925C24.187 20.337 23.638 20.475 23.225 20.2C19.925 18.275 15.937 17.863 12.225 18.962C11.813 19.1 11.263 18.825 11.125 18.412C10.987 17.862 11.263 17.45 11.675 17.175C13.7309 16.5634 15.8908 16.3821 18.02 16.6422C20.1491 16.9024 22.2018 17.5984 24.05 18.687C24.463 18.962 24.6 19.512 24.463 19.925ZM24.463 16.762C20.888 14.7 15.113 14.425 11.675 15.525C11.125 15.662 10.575 15.387 10.437 14.837C10.3 14.287 10.575 13.737 11.125 13.463C14.975 12.363 21.438 12.5 25.563 14.975C26.113 15.25 26.25 15.938 25.975 16.35C25.562 16.9 25.013 17.038 24.463 16.762Z" fill="#F1E3E4"/>
</svg>
