<svg width="35" height="35" viewBox="0 0 35 35" fill="none" xmlns="http://www.w3.org/2000/svg">
<path d="M3.547 23.621C3.612 23.621 3.667 23.569 3.677 23.497L4.037 20.801L3.677 18.043C3.67383 18.0096 3.65855 17.9786 3.63404 17.9558C3.60953 17.9329 3.5775 17.9198 3.544 17.919C3.51068 17.9201 3.47889 17.9333 3.45459 17.9561C3.43029 17.9789 3.41515 18.0098 3.412 18.043L3.098 20.8L3.412 23.495C3.41519 23.5288 3.43073 23.5602 3.45563 23.5833C3.48053 23.6063 3.51306 23.6204 3.547 23.621ZM2.362 22.596C2.427 22.596 2.48 22.548 2.489 22.476L2.768 20.801L2.489 19.095C2.48 19.025 2.427 18.975 2.362 18.975C2.295 18.975 2.242 19.025 2.232 19.095L2 20.8L2.232 22.475C2.242 22.545 2.295 22.595 2.362 22.595V22.596ZM4.96 17.53C4.95711 17.4894 4.9393 17.4513 4.91 17.423C4.88014 17.3949 4.84096 17.3789 4.8 17.378C4.75919 17.3782 4.72002 17.3941 4.69061 17.4224C4.6612 17.4507 4.6438 17.4892 4.642 17.53L4.342 20.802L4.642 23.954C4.645 23.995 4.662 24.033 4.692 24.061C4.722 24.088 4.761 24.104 4.802 24.104C4.84276 24.1041 4.88201 24.0886 4.91174 24.0607C4.94148 24.0329 4.95945 23.9947 4.962 23.954L5.3 20.802L4.96 17.53ZM6.07 24.23C6.117 24.23 6.162 24.211 6.196 24.178C6.23081 24.1456 6.25222 24.1014 6.256 24.054L6.577 20.802L6.257 17.44C6.25326 17.3925 6.23191 17.3481 6.19712 17.3155C6.16234 17.283 6.11664 17.2646 6.069 17.264C6.02133 17.2644 5.97561 17.2829 5.94108 17.3158C5.90655 17.3487 5.88579 17.3934 5.883 17.441L5.599 20.802L5.881 24.054C5.88342 24.1022 5.90417 24.1476 5.939 24.181C5.975 24.214 6.021 24.231 6.069 24.231L6.07 24.23ZM7.347 24.284C7.40186 24.2836 7.45454 24.2625 7.49443 24.2248C7.53432 24.1871 7.55846 24.1357 7.562 24.081L7.864 20.802L7.563 17.682C7.55873 17.6276 7.53413 17.5768 7.4941 17.5398C7.45407 17.5027 7.40155 17.4821 7.347 17.482C7.29213 17.4817 7.23927 17.5027 7.19955 17.5405C7.15983 17.5784 7.13633 17.6302 7.134 17.685L6.866 20.804L7.134 24.081C7.13633 24.1358 7.15983 24.1876 7.19955 24.2255C7.23927 24.2633 7.29213 24.2843 7.347 24.284ZM9.16 20.804L8.877 15.73C8.87321 15.6682 8.84614 15.6101 8.80124 15.5674C8.75634 15.5247 8.69694 15.5006 8.635 15.5C8.57274 15.4999 8.51283 15.5237 8.46761 15.5665C8.42239 15.6093 8.39533 15.6678 8.392 15.73L8.142 20.804L8.392 24.081C8.39883 24.1409 8.4273 24.1962 8.47205 24.2365C8.5168 24.2768 8.57476 24.2994 8.635 24.3C8.69533 24.3 8.75351 24.2777 8.79824 24.2372C8.84297 24.1967 8.87104 24.141 8.877 24.081L9.16 20.804ZM9.935 24.317C10.0041 24.3173 10.0707 24.2908 10.1207 24.2431C10.1706 24.1953 10.2002 24.1301 10.203 24.061V24.064L10.468 20.805L10.203 14.57C10.1975 14.502 10.1667 14.4385 10.1168 14.392C10.0668 14.3456 10.0012 14.3195 9.933 14.319C9.86456 14.3188 9.79862 14.3447 9.7485 14.3912C9.69837 14.4378 9.66782 14.5017 9.663 14.57L9.431 20.805L9.664 24.062C9.66784 24.131 9.69797 24.1959 9.74819 24.2433C9.79842 24.2907 9.86492 24.3171 9.934 24.317H9.935ZM11.241 13.769C11.1645 13.7684 11.0907 13.7976 11.0353 13.8504C10.9798 13.9032 10.9471 13.9755 10.944 14.052L10.727 20.805L10.944 24.029C10.9469 24.1054 10.9796 24.1776 11.0351 24.2302C11.0906 24.2827 11.1646 24.3114 11.241 24.31C11.3172 24.3109 11.3908 24.2822 11.4464 24.23C11.5019 24.1778 11.5351 24.1061 11.539 24.03L11.785 20.805L11.539 14.052C11.5359 13.9753 11.503 13.9029 11.4474 13.8501C11.3918 13.7972 11.3177 13.7682 11.241 13.769ZM12.56 24.317C12.6442 24.3186 12.7256 24.287 12.7867 24.229C12.8477 24.1709 12.8834 24.0912 12.886 24.007V24.01L13.112 20.805L12.886 13.825C12.8831 13.7413 12.8476 13.662 12.7871 13.604C12.7266 13.5461 12.6458 13.5142 12.562 13.515C12.5204 13.5141 12.479 13.5214 12.4401 13.5364C12.4013 13.5515 12.3659 13.5741 12.3358 13.6029C12.3057 13.6317 12.2816 13.6661 12.2648 13.7042C12.248 13.7423 12.2389 13.7834 12.238 13.825L12.033 20.805L12.237 24.01C12.2394 24.0935 12.2747 24.1726 12.3352 24.2301C12.3957 24.2877 12.4765 24.3189 12.56 24.317ZM13.89 24.314C13.9808 24.3151 14.0685 24.2805 14.1341 24.2177C14.1998 24.1549 14.2381 24.0688 14.241 23.978V23.981L14.451 20.806L14.241 14.002C14.2381 13.9116 14.1998 13.826 14.1343 13.7637C14.0688 13.7014 13.9814 13.6674 13.891 13.669C13.8006 13.6679 13.7132 13.702 13.6475 13.7642C13.5818 13.8263 13.5429 13.9116 13.539 14.002L13.355 20.806L13.54 23.98C13.5429 24.0704 13.5812 24.156 13.6467 24.2183C13.7122 24.2806 13.7996 24.3156 13.89 24.314ZM15.799 20.806L15.609 14.25C15.6056 14.1523 15.564 14.0598 15.4931 13.9925C15.4222 13.9252 15.3277 13.8884 15.23 13.89C15.1317 13.8881 15.0367 13.9251 14.9656 13.9929C14.8944 14.0606 14.8529 14.1538 14.85 14.252L14.682 20.806L14.851 23.961C14.8546 24.0588 14.8965 24.1513 14.9675 24.2186C15.0386 24.2859 15.1332 24.3226 15.231 24.321C15.3291 24.3218 15.4236 24.2842 15.4943 24.2161C15.5649 24.1481 15.6061 24.0551 15.609 23.957V23.961L15.799 20.806ZM16.58 24.326C16.8 24.326 16.981 24.153 16.985 23.94L17.157 20.808L16.985 13.008C16.9814 12.9033 16.937 12.8042 16.8613 12.7317C16.7857 12.6592 16.6848 12.6192 16.58 12.62C16.4753 12.6199 16.3745 12.6601 16.2987 12.7324C16.2229 12.8047 16.1779 12.9034 16.173 13.008L16.02 20.805L16.173 23.941C16.178 24.151 16.36 24.326 16.58 24.326ZM17.926 11.886C17.8135 11.8841 17.7047 11.9264 17.623 12.0038C17.5413 12.0812 17.4932 12.1875 17.489 12.3L17.311 20.81L17.491 23.896C17.4962 24.0071 17.5442 24.1118 17.6249 24.1882C17.7056 24.2647 17.8128 24.3069 17.924 24.306C18.036 24.3068 18.1439 24.264 18.2248 24.1865C18.3057 24.1089 18.3531 24.0029 18.357 23.891V23.896L18.551 20.809L18.356 12.301C18.3526 12.1894 18.3058 12.0836 18.2254 12.006C18.1451 11.9285 18.0376 11.8854 17.926 11.886ZM19.154 24.329L30.063 24.334C32.237 24.334 34 22.644 34 20.557C34 18.472 32.237 16.781 30.062 16.781C29.524 16.781 29.01 16.886 28.54 17.074C28.23 13.671 25.253 11 21.624 11C20.737 11 19.872 11.168 19.108 11.452C18.811 11.562 18.73 11.676 18.728 11.896V23.881C18.7323 23.9948 18.778 24.1031 18.8567 24.1855C18.9354 24.2679 19.0415 24.3185 19.155 24.328L19.154 24.329Z" fill="#F1E3E4"/>
</svg>
