<svg width="35" height="35" viewBox="0 0 35 35" fill="#F1E3E4" xmlns="http://www.w3.org/2000/svg">
<path d="M18.2 10.7C18.0825 10.7016 17.9672 10.6682 17.8688 10.6038C17.7705 10.5395 17.6936 10.4473 17.648 10.339C17.6175 10.2671 17.6012 10.1901 17.6 10.112C17.6 7.84 19.48 6 21.799 6C21.877 5.99907 21.9543 6.01353 22.0267 6.04254C22.0991 6.07155 22.165 6.11455 22.2207 6.16907C22.2765 6.22359 22.3209 6.28857 22.3515 6.36028C22.3821 6.432 22.3982 6.50904 22.399 6.587C22.399 8.859 20.519 10.7 18.2 10.7ZM26.96 23.069C27.192 23.239 27.268 23.549 27.136 23.802C25.024 27.939 23.339 30 21.8 30C21.083 30 20.379 29.773 19.692 29.331C19.1995 29.0146 18.6291 28.8406 18.0439 28.8282C17.4586 28.8159 16.8814 28.9657 16.376 29.261C15.544 29.749 14.752 30.001 14 30.001C11.736 30.001 8 23.173 8 19.427C8 15.427 10.143 12.377 13.4 12.377C14.933 12.377 16.256 12.598 17.368 13.048C17.838 13.237 18.371 13.224 18.83 13.008C19.732 12.583 20.923 12.378 22.398 12.378C24.201 12.378 25.774 13.258 27.08 14.962C27.1269 15.0235 27.1612 15.0937 27.1807 15.1686C27.2003 15.2434 27.2048 15.3214 27.194 15.398C27.17 15.5525 27.0859 15.6913 26.96 15.784C25.502 16.856 24.8 18.058 24.8 19.427C24.8 20.795 25.502 21.999 26.96 23.069Z"/>
</svg>
